<?xml version="1.0" encoding="utf-8"?>
<!-- Generator: Adobe Illustrator 18.1.1, SVG Export Plug-In . SVG Version: 6.00 Build 0)  -->
<!DOCTYPE svg PUBLIC "-//W3C//DTD SVG 1.1//EN" "http://www.w3.org/Graphics/SVG/1.1/DTD/svg11.dtd">
<svg version="1.1" id="Layer_1" xmlns="http://www.w3.org/2000/svg" xmlns:xlink="http://www.w3.org/1999/xlink" x="0px" y="0px"
	 viewBox="0 0 47.5 26.5" enable-background="new 0 0 47.5 26.5" xml:space="preserve">
<rect x="-352" y="-696.5" display="none" fill="#0B0603" width="1440" height="900"/>
<g>
	<defs>
		<rect id="SVGID_1_" width="47.5" height="26.5"/>
	</defs>
	<clipPath id="SVGID_2_">
		<use xlink:href="#SVGID_1_"  overflow="visible"/>
	</clipPath>
	<g clip-path="url(#SVGID_2_)">
		<defs>
			<rect id="SVGID_3_" x="-4" y="-4.5" width="55.8" height="34.7"/>
		</defs>
		<clipPath id="SVGID_4_">
			<use xlink:href="#SVGID_3_"  overflow="visible"/>
		</clipPath>
		<g clip-path="url(#SVGID_4_)">
			<defs>
				<rect id="SVGID_5_" x="-352" y="-696.5" width="1440" height="900"/>
			</defs>
			<clipPath id="SVGID_6_">
				<use xlink:href="#SVGID_5_"  overflow="visible"/>
			</clipPath>
			<rect x="-4" y="-4.5" clip-path="url(#SVGID_6_)" fill="#333333" width="55.8" height="34.7"/>
			<g clip-path="url(#SVGID_6_)">
				<text transform="matrix(1 0 0 1 5 11.5)" fill="#FFFFFF" font-family="'Lato-Black'" font-size="8">CAS</text>
			</g>
			<g clip-path="url(#SVGID_6_)">
				<text transform="matrix(1 0 0 1 20.4878 11.5)" fill="#FFFFFF" font-family="'Lato-Black'" font-size="8">H</text>
			</g>
			<g clip-path="url(#SVGID_6_)">
				<text transform="matrix(1 0 0 1 26.5361 11.5)" fill="#FFFFFF" font-family="'Lato-Black'" font-size="8"> </text>
			</g>
			<g clip-path="url(#SVGID_6_)">
				<text transform="matrix(1 0 0 1 28.0801 11.5)" fill="#FFFFFF" font-family="'Lato-Black'" font-size="8">O</text>
			</g>
			<g clip-path="url(#SVGID_6_)">
				<text transform="matrix(1 0 0 1 34.48 11.5)" fill="#FFFFFF" font-family="'Lato-Black'" font-size="8">N </text>
			</g>
			<g clip-path="url(#SVGID_6_)">
				<text transform="matrix(1 0 0 1 5 21.5)" fill="#FFFFFF" font-family="'Lato-Black'" font-size="8">D</text>
			</g>
			<g clip-path="url(#SVGID_6_)">
				<text transform="matrix(1 0 0 1 10.936 21.5)" fill="#FFFFFF" font-family="'Lato-Black'" font-size="8">E</text>
			</g>
			<g clip-path="url(#SVGID_6_)">
				<text transform="matrix(1 0 0 1 15.4561 21.5)" fill="#FFFFFF" font-family="'Lato-Black'" font-size="8">L</text>
			</g>
			<g clip-path="url(#SVGID_6_)">
				<text transform="matrix(1 0 0 1 19.6079 21.5)" fill="#FFFFFF" font-family="'Lato-Black'" font-size="8">I</text>
			</g>
			<g clip-path="url(#SVGID_6_)">
				<text transform="matrix(1 0 0 1 22.168 21.5)" fill="#FFFFFF" font-family="'Lato-Black'" font-size="8">V</text>
			</g>
			<g clip-path="url(#SVGID_6_)">
				<text transform="matrix(1 0 0 1 28.064 21.5)" fill="#FFFFFF" font-family="'Lato-Black'" font-size="8">E</text>
			</g>
			<g clip-path="url(#SVGID_6_)">
				<text transform="matrix(1 0 0 1 32.584 21.5)" fill="#FFFFFF" font-family="'Lato-Black'" font-size="8">R</text>
			</g>
			<g clip-path="url(#SVGID_6_)">
				<text transform="matrix(1 0 0 1 37.9038 21.5)" fill="#FFFFFF" font-family="'Lato-Black'" font-size="8">Y</text>
			</g>
		</g>
	</g>
</g>
</svg>
